<svg width="133" height="26" viewBox="0 0 133 26" fill="none" xmlns="http://www.w3.org/2000/svg">
<g clip-path="url(#clip0_8_313)">
<path d="M44.6759 5.41059H51.8116C53.307 5.36787 54.7946 5.6409 56.1764 6.21171C57.2705 6.67156 58.2016 7.44648 58.8504 8.43704C59.4488 9.42281 59.7559 10.5566 59.7367 11.7083C59.7518 12.8645 59.431 14.0005 58.8131 14.9795C58.1257 16.0183 57.1429 16.8292 55.9902 17.3087C54.5047 17.9219 52.9049 18.2127 51.2976 18.1618H44.6759V5.41059ZM51.2157 14.9202C52.1852 14.9882 53.1435 14.6798 53.8897 14.0597C54.2071 13.7555 54.4546 13.3865 54.6154 12.9781C54.7761 12.5696 54.8461 12.1314 54.8208 11.6934C54.8441 11.2858 54.7827 10.8778 54.6405 10.4949C54.4982 10.112 54.2781 9.76243 53.994 9.46811C53.6499 9.17137 53.2505 8.94522 52.8184 8.80265C52.3864 8.66008 51.9303 8.60389 51.4764 8.63732H49.2419V14.9202H51.2157Z" fill="white"/>
<path d="M70.4254 18.1837C69.4825 17.9503 68.5807 17.5751 67.7513 17.0711V14.0075C68.4762 14.5318 69.2918 14.919 70.1572 15.1499C71.1037 15.4385 72.0872 15.5884 73.077 15.5949C73.4209 15.616 73.765 15.5576 74.0825 15.4243C74.306 15.313 74.4177 15.1647 74.4177 15.0163C74.42 14.9311 74.4046 14.8463 74.3725 14.7671C74.3405 14.688 74.2925 14.6163 74.2315 14.5564C74.0126 14.3934 73.7568 14.2864 73.4867 14.2449L71.3266 13.7331C70.3419 13.5709 69.4172 13.1539 68.6452 12.524C68.3808 12.2571 68.1743 11.939 68.0385 11.5894C67.9027 11.2397 67.8404 10.8661 67.8556 10.4915C67.8491 9.81255 68.099 9.15597 68.5558 8.65189C69.0947 8.08032 69.7756 7.66066 70.5297 7.43537C71.4937 7.13585 72.4993 6.99063 73.509 7.00514C74.4604 6.99721 75.4089 7.10937 76.332 7.33894C77.0781 7.5098 77.7938 7.79242 78.4548 8.17715V11.0627C77.8324 10.7033 77.1632 10.4312 76.4661 10.2541C75.7111 10.0497 74.932 9.94736 74.1496 9.95C73.0025 9.95 72.429 10.1429 72.429 10.536C72.4283 10.6218 72.4525 10.7059 72.4988 10.7783C72.545 10.8507 72.6113 10.9082 72.6896 10.944C73.004 11.0792 73.3345 11.1739 73.6729 11.2259L75.4977 11.5522C76.47 11.6624 77.3915 12.0429 78.1569 12.6501C78.4625 12.9435 78.6996 13.3002 78.8515 13.695C79.0033 14.0898 79.0663 14.5131 79.0358 14.9347C79.0425 15.4655 78.9083 15.9885 78.6467 16.451C78.3851 16.9134 78.0054 17.2988 77.5461 17.5681C76.2925 18.2853 74.8552 18.6206 73.4122 18.5324C72.4059 18.541 71.4024 18.4239 70.4254 18.1837Z" fill="white"/>
<path d="M83.3856 17.7681C82.4064 17.3189 81.5805 16.5944 81.0096 15.6837C80.4926 14.7815 80.2349 13.7549 80.2647 12.7166C80.2423 11.6682 80.5298 10.6364 81.0915 9.74945C81.6826 8.88867 82.5064 8.21226 83.4676 7.79858C84.6665 7.27688 85.9658 7.02366 87.2738 7.0568C88.8718 6.99499 90.454 7.39149 91.8322 8.19914V11.5075C91.3756 11.1877 90.8735 10.9376 90.3425 10.7657C89.7503 10.5778 89.1317 10.4851 88.5102 10.4912C87.5821 10.4404 86.659 10.6567 85.8511 11.1143C85.5647 11.2771 85.3266 11.5124 85.161 11.7964C84.9954 12.0804 84.9081 12.403 84.9081 12.7314C84.9081 13.0598 84.9954 13.3824 85.161 13.6664C85.3266 13.9504 85.5647 14.1857 85.8511 14.3485C86.6742 14.8165 87.6163 15.0355 88.5624 14.979C89.1725 14.978 89.7795 14.8906 90.3649 14.7194C90.8861 14.5624 91.3863 14.3432 91.8546 14.0666V17.2933C90.4386 18.1151 88.823 18.5334 87.1844 18.5024C85.8788 18.545 84.5804 18.294 83.3856 17.7681Z" fill="white"/>
<path d="M96.3907 17.7685C95.4002 17.3186 94.5601 16.5952 93.97 15.6841C93.4173 14.7932 93.1305 13.7641 93.1432 12.717C93.1158 11.668 93.4037 10.6348 93.97 9.74991C94.5666 8.86538 95.4036 8.16816 96.3833 7.73969C98.7882 6.76776 101.479 6.76776 103.884 7.73969C104.86 8.16355 105.693 8.85897 106.282 9.7425C106.845 10.6291 107.132 11.6611 107.109 12.7096C107.127 13.7745 106.83 14.8213 106.255 15.7195C105.681 16.6176 104.853 17.3277 103.876 17.7611C102.699 18.2623 101.432 18.5206 100.152 18.5206C98.872 18.5206 97.6051 18.2623 96.4279 17.7611L96.3907 17.7685ZM101.955 14.5344C102.18 14.3003 102.354 14.023 102.468 13.7195C102.582 13.416 102.633 13.0926 102.618 12.7689C102.635 12.4496 102.585 12.1302 102.471 11.8312C102.356 11.5323 102.181 11.2604 101.955 11.0332C101.708 10.8091 101.419 10.636 101.104 10.524C100.79 10.4119 100.456 10.3631 100.122 10.3804C99.4491 10.3488 98.7904 10.5834 98.29 11.0332C98.064 11.2604 97.8884 11.5323 97.7742 11.8312C97.6601 12.1302 97.61 12.4496 97.6272 12.7689C97.6125 13.0925 97.6637 13.4157 97.7776 13.7191C97.8915 14.0225 98.0658 14.2998 98.29 14.5344C98.5351 14.7616 98.8238 14.9371 99.1386 15.0506C99.4535 15.164 99.7881 15.213 100.122 15.1946C100.457 15.2156 100.792 15.1678 101.107 15.0543C101.423 14.9407 101.711 14.7637 101.955 14.5344Z" fill="white"/>
<path d="M118.103 7.70206V11.6409C117.558 11.3153 116.928 11.1579 116.293 11.1884C115.879 11.1647 115.464 11.2315 115.078 11.3839C114.692 11.5364 114.344 11.7709 114.059 12.0711C113.487 12.8672 113.223 13.8414 113.314 14.8157V18.1834H108.845V7.50178H113.239V10.8917C113.379 9.88733 113.788 8.9391 114.424 8.14713C114.686 7.85672 115.01 7.62719 115.372 7.47469C115.733 7.32219 116.124 7.25042 116.517 7.26441C117.076 7.25901 117.626 7.41068 118.103 7.70206Z" fill="white"/>
<path d="M133.007 5.04663V18.1835H128.538V15.7727C128.199 16.6253 127.59 17.3443 126.803 17.82C125.942 18.3258 124.957 18.5827 123.958 18.5618C123.017 18.5804 122.092 18.3223 121.298 17.82C120.532 17.3238 119.923 16.6217 119.541 15.795C119.118 14.8843 118.906 13.8904 118.922 12.8872C118.892 11.8452 119.117 10.8115 119.578 9.87561C119.995 9.01713 120.649 8.2943 121.462 7.79121C122.298 7.29075 123.258 7.03376 124.233 7.04943C125.156 6.97439 126.079 7.20488 126.857 7.70514C127.636 8.2054 128.227 8.94747 128.538 9.81626V5.06888L133.007 5.04663ZM127.861 14.4746C128.09 14.2518 128.269 13.9834 128.387 13.6869C128.505 13.3904 128.559 13.0724 128.546 12.7537C128.557 12.4442 128.501 12.1359 128.383 11.8494C128.265 11.5629 128.087 11.3047 127.861 11.0921C127.347 10.6752 126.705 10.4475 126.043 10.4475C125.381 10.4475 124.739 10.6752 124.226 11.0921C123.79 11.5485 123.547 12.1539 123.547 12.7834C123.547 13.4129 123.79 14.0183 124.226 14.4746C124.463 14.6988 124.745 14.8724 125.052 14.9846C125.359 15.0969 125.686 15.1454 126.013 15.1274C126.35 15.1493 126.687 15.1027 127.004 14.9904C127.322 14.8782 127.613 14.7027 127.861 14.4746Z" fill="white"/>
<path d="M28.1626 2.25011C25.9786 1.25285 23.672 0.547017 21.3026 0.150879C20.9785 0.726006 20.685 1.31778 20.4236 1.92373C17.9004 1.54537 15.3345 1.54537 12.8113 1.92373C12.553 1.31636 12.2595 0.724411 11.9324 0.150879C9.56261 0.549554 7.25601 1.25788 5.07232 2.25753C1.19848 7.71382 -0.553764 14.3855 0.141432 21.0319C2.68247 22.9024 5.52679 24.325 8.55075 25.2378C9.23563 24.328 9.83883 23.36 10.3533 22.3449C9.369 21.9796 8.41929 21.5278 7.51544 20.9948L8.2156 20.4756C10.8467 21.7066 13.7179 22.3449 16.6249 22.3449C19.5319 22.3449 22.4031 21.7066 25.0342 20.4756C25.2551 20.6616 25.4864 20.8349 25.727 20.9948C24.8295 21.5272 23.8874 21.9814 22.9114 22.3523C23.4332 23.3609 24.036 24.3259 24.7139 25.2378C27.7417 24.3323 30.5893 22.9118 33.1307 21.0393C33.8202 14.3833 32.0543 7.70477 28.1626 2.25011ZM11.0982 17.2563C10.2768 17.1696 9.51668 16.7833 8.96427 16.1718C8.41185 15.5603 8.10622 14.7668 8.10622 13.9442C8.10622 13.1217 8.41185 12.3282 8.96427 11.7167C9.51668 11.1052 10.2768 10.7189 11.0982 10.6322C11.5131 10.653 11.9198 10.7555 12.2947 10.9339C12.6696 11.1122 13.0053 11.3628 13.2824 11.6711C13.5594 11.9795 13.7724 12.3394 13.9089 12.7302C14.0454 13.1211 14.1027 13.5349 14.0775 13.9479C14.1163 14.7785 13.8256 15.5908 13.2682 16.2098C12.7108 16.8287 11.9314 17.2046 11.0982 17.2563ZM22.1442 17.2563C21.3228 17.1696 20.5628 16.7833 20.0104 16.1718C19.458 15.5603 19.1523 14.7668 19.1523 13.9442C19.1523 13.1217 19.458 12.3282 20.0104 11.7167C20.5628 11.1052 21.3228 10.7189 22.1442 10.6322C22.5595 10.652 22.9667 10.7539 23.3421 10.9319C23.7175 11.1099 24.0536 11.3605 24.3308 11.669C24.6081 11.9776 24.8209 12.338 24.957 12.7292C25.0931 13.1204 25.1498 13.5347 25.1236 13.9479C25.1645 14.7753 24.8776 15.5856 24.3245 16.2044C23.7715 16.8231 22.9965 17.2009 22.1666 17.2563H22.1442Z" fill="white"/>
<path d="M63.5131 8.64427C64.7472 8.64427 65.7477 7.74759 65.7477 6.64147C65.7477 5.53536 64.7472 4.63867 63.5131 4.63867C62.279 4.63867 61.2786 5.53536 61.2786 6.64147C61.2786 7.74759 62.279 8.64427 63.5131 8.64427Z" fill="white"/>
<path d="M61.2786 10.0242C61.9861 10.3204 62.7458 10.473 63.5132 10.473C64.2806 10.473 65.0403 10.3204 65.7477 10.0242V18.2208H61.2786V10.0242Z" fill="white"/>
</g>
<defs>
<clipPath id="clip0_8_313">
<rect width="133" height="25.0943" fill="white" transform="translate(0 0.150879)"/>
</clipPath>
</defs>
</svg>
